<svg xmlns="http://www.w3.org/2000/svg" width="16" height="15" viewBox="0 0 16 15"><path fill="#FFF" d="M14.4140625,6.7578125 L8.203125,6.7578125 L8.203125,0.703125 C8.203125,0.5078125 8.13476562,0.341796875 7.99804688,0.205078125 C7.86132812,0.068359375 7.6953125,0 7.5,0 L7.5,0 C7.3046875,0 7.13867188,0.068359375 7.00195312,0.205078125 C6.86523438,0.341796875 6.796875,0.5078125 6.796875,0.703125 L6.796875,6.7578125 L0.703125,6.7578125 C0.520833333,6.7578125 0.358072917,6.82617188 0.21484375,6.96289062 C0.0716145833,7.09960938 0,7.265625 0,7.4609375 L0,7.4609375 C0,7.65625 0.0716145833,7.82226562 0.21484375,7.95898437 C0.358072917,8.09570312 0.520833333,8.1640625 0.703125,8.1640625 L6.796875,8.1640625 L6.796875,14.2578125 C6.796875,14.4401042 6.86523438,14.6028646 7.00195312,14.7460938 C7.13867188,14.8893229 7.3046875,14.9609375 7.5,14.9609375 L7.5,14.9609375 C7.6953125,14.9609375 7.86132812,14.8893229 7.99804688,14.7460938 C8.13476562,14.6028646 8.203125,14.4401042 8.203125,14.2578125 L8.203125,8.1640625 L14.4140625,8.1640625 C14.609375,8.1640625 14.7753906,8.09570312 14.9121094,7.95898437 C15.0488281,7.82226562 15.1171875,7.65625 15.1171875,7.4609375 L15.1171875,7.4609375 C15.1171875,7.265625 15.0488281,7.09960938 14.9121094,6.96289062 C14.7753906,6.82617188 14.609375,6.7578125 14.4140625,6.7578125 Z" transform="translate(.5 .04)"/></svg>