<svg width="14" height="19" viewBox="0 0 14 19" fill="none" xmlns="http://www.w3.org/2000/svg">
<path d="M1.58337 8.059V16.809C1.58337 16.924 1.67671 17.0173 1.79171 17.0173H12.2084C12.2636 17.0173 12.3166 16.9954 12.3557 16.9563C12.3948 16.9172 12.4167 16.8643 12.4167 16.809V8.059C12.4167 8.00375 12.3948 7.95076 12.3557 7.91169C12.3166 7.87262 12.2636 7.85067 12.2084 7.85067H10.125C9.95928 7.85067 9.80031 7.78482 9.6831 7.66761C9.56589 7.5504 9.50004 7.39143 9.50004 7.22567C9.50004 7.05991 9.56589 6.90093 9.6831 6.78372C9.80031 6.66651 9.95928 6.60067 10.125 6.60067H12.2084C13.0134 6.60067 13.6667 7.254 13.6667 8.059V16.809C13.6667 17.1958 13.5131 17.5667 13.2396 17.8402C12.9661 18.1137 12.5951 18.2673 12.2084 18.2673H1.79171C1.40493 18.2673 1.034 18.1137 0.76051 17.8402C0.487019 17.5667 0.333374 17.1958 0.333374 16.809V8.059C0.333374 7.254 0.986707 6.60067 1.79171 6.60067H3.87504C4.0408 6.60067 4.19977 6.66651 4.31698 6.78372C4.43419 6.90093 4.50004 7.05991 4.50004 7.22567C4.50004 7.39143 4.43419 7.5504 4.31698 7.66761C4.19977 7.78482 4.0408 7.85067 3.87504 7.85067H1.79171C1.73645 7.85067 1.68346 7.87262 1.64439 7.91169C1.60532 7.95076 1.58337 8.00375 1.58337 8.059ZM7.44171 0.950667L10.15 3.659C10.2323 3.73539 10.2925 3.83256 10.3241 3.94027C10.3558 4.04798 10.3579 4.16223 10.33 4.271C10.3022 4.37977 10.2456 4.47903 10.1661 4.55831C10.0866 4.6376 9.98722 4.69397 9.87837 4.7215C9.76973 4.74935 9.65558 4.7474 9.54795 4.71588C9.44031 4.68435 9.34316 4.6244 9.26671 4.54233L7.62504 2.90067V11.809C7.62504 11.9748 7.55919 12.1337 7.44198 12.2509C7.32477 12.3682 7.1658 12.434 7.00004 12.434C6.83428 12.434 6.67531 12.3682 6.5581 12.2509C6.44089 12.1337 6.37504 11.9748 6.37504 11.809V2.90067L4.73337 4.54233C4.61482 4.65267 4.45811 4.71276 4.29618 4.70996C4.13425 4.70717 3.97971 4.6417 3.86504 4.52733C3.75067 4.41266 3.68521 4.25812 3.68241 4.09619C3.67961 3.93426 3.7397 3.77755 3.85004 3.659L6.55837 0.950667C6.67556 0.833625 6.83441 0.767883 7.00004 0.767883C7.16567 0.767883 7.32452 0.833625 7.44171 0.950667Z" fill="#111111"/>
</svg>
